<svg xmlns="http://www.w3.org/2000/svg" width="1200" height="600" viewBox="0 0 1200 600" preserveAspectRatio="xMidYMid slice">
  <defs>
    <linearGradient id="sky" x1="0" y1="0" x2="1" y2="1">
      <stop offset="0" stop-color="#1b2a6b"/><stop offset="0.55" stop-color="#667eea"/><stop offset="1" stop-color="#2c3e8a"/>
    </linearGradient>
  </defs>
  <rect width="1200" height="600" fill="url(#sky)"/>
  <g stroke="#ffffff" stroke-opacity="0.16" stroke-width="6" fill="none">
    <path d="M0 470h1200"/>
    <path d="M60 470 L10 600"/>
    <path d="M170 470 L120 600"/>
    <path d="M280 470 L230 600"/>
    <path d="M390 470 L340 600"/>
    <path d="M500 470 L450 600"/>
    <path d="M610 470 L560 600"/>
    <path d="M720 470 L670 600"/>
    <path d="M830 470 L780 600"/>
    <path d="M940 470 L890 600"/>
    <path d="M1050 470 L1000 600"/>
    <path d="M1160 470 L1110 600"/>
    <path d="M1270 470 L1220 600"/>
  </g>
  <g fill="#ffffff" fill-opacity="0.08">
    <circle cx="90" cy="70" r="26"/>
    <circle cx="90" cy="160" r="26"/>
    <circle cx="90" cy="250" r="26"/>
    <circle cx="90" cy="340" r="26"/>
    <circle cx="220" cy="70" r="26"/>
    <circle cx="220" cy="160" r="26"/>
    <circle cx="220" cy="250" r="26"/>
    <circle cx="220" cy="340" r="26"/>
    <circle cx="350" cy="70" r="26"/>
    <circle cx="350" cy="160" r="26"/>
    <circle cx="350" cy="250" r="26"/>
    <circle cx="350" cy="340" r="26"/>
    <circle cx="480" cy="70" r="26"/>
    <circle cx="480" cy="160" r="26"/>
    <circle cx="480" cy="250" r="26"/>
    <circle cx="480" cy="340" r="26"/>
    <circle cx="610" cy="70" r="26"/>
    <circle cx="610" cy="160" r="26"/>
    <circle cx="610" cy="250" r="26"/>
    <circle cx="610" cy="340" r="26"/>
    <circle cx="740" cy="70" r="26"/>
    <circle cx="740" cy="160" r="26"/>
    <circle cx="740" cy="250" r="26"/>
    <circle cx="740" cy="340" r="26"/>
    <circle cx="870" cy="70" r="26"/>
    <circle cx="870" cy="160" r="26"/>
    <circle cx="870" cy="250" r="26"/>
    <circle cx="870" cy="340" r="26"/>
    <circle cx="1000" cy="70" r="26"/>
    <circle cx="1000" cy="160" r="26"/>
    <circle cx="1000" cy="250" r="26"/>
    <circle cx="1000" cy="340" r="26"/>
    <circle cx="1130" cy="70" r="26"/>
    <circle cx="1130" cy="160" r="26"/>
    <circle cx="1130" cy="250" r="26"/>
    <circle cx="1130" cy="340" r="26"/>
  </g>
</svg>
